<svg width="73" height="57" viewBox="0 0 73 57" fill="none" xmlns="http://www.w3.org/2000/svg">
<rect x="7" y="13" width="39" height="6" rx="3" fill="#D7F6F0"/>
<rect x="18" y="37" width="49" height="6" rx="3" fill="#D7F6F0"/>
<rect x="60" y="29" width="10" height="6" rx="3" fill="#D7F6F0"/>
<rect x="48" y="13" width="10" height="6" rx="3" fill="#D7F6F0"/>
<rect x="5" y="21" width="10" height="6" rx="3" fill="#D7F6F0"/>
<rect x="3" y="37" width="14" height="6" rx="3" fill="#D7F6F0"/>
<rect x="17" y="21" width="45" height="6" rx="3" fill="#D7F6F0"/>
<rect x="14" y="29" width="44" height="6" rx="3" fill="#D7F6F0"/>
<rect x="21.5" y="18.5" width="33" height="20" rx="1.5" fill="white" stroke="#2AD1AD"/>
<rect x="22" y="22" width="32" height="3" fill="#2AD1AD"/>
<circle cx="46" cy="32" r="3" fill="#D7F6F0"/>
<circle cx="49" cy="32" r="3" fill="#2AD1AD"/>
<rect x="24" y="33" width="5" height="2" rx="1" fill="#2AD1AD"/>
<rect x="31" y="33" width="5" height="2" rx="1" fill="#2AD1AD"/>
<circle cx="61" cy="14" r="1.35" stroke="#2AD1AD" stroke-width="0.7"/>
<circle cx="8" cy="32" r="1.65" stroke="#2AD1AD" stroke-width="0.7"/>
<path d="M15.5859 15.5859L18.4144 18.4144" stroke="#2AD1AD" stroke-width="0.7"/>
<path d="M18.4141 15.5859L15.5856 18.4144" stroke="#2AD1AD" stroke-width="0.7"/>
<path d="M59.4141 37.4141L62.2425 40.2425" stroke="#2AD1AD" stroke-width="0.7"/>
<path d="M62.2422 37.4141L59.4138 40.2425" stroke="#2AD1AD" stroke-width="0.7"/>
</svg>
