<svg id="Layer_1" data-name="Layer 1" xmlns="http://www.w3.org/2000/svg" viewBox="0 0 53.54 40.52"><defs><style>.cls-1{fill:#ddedff;}.cls-2,.cls-5{fill:none;}.cls-2,.cls-5,.cls-6,.cls-7{stroke:#007aff;}.cls-2,.cls-5,.cls-6{stroke-linecap:round;stroke-linejoin:round;}.cls-2{stroke-width:0.7px;}.cls-3,.cls-6,.cls-7{fill:#fff;}.cls-4{fill:#007aff;}.cls-7{stroke-miterlimit:10;}</style></defs><rect class="cls-1" x="2.51" y="16.39" width="13.58" height="6.73" rx="3.36"/><rect class="cls-1" x="18.2" y="15.86" width="35.34" height="6.73" rx="3.36"/><rect class="cls-1" x="6.53" y="6.9" width="35.93" height="6.73" rx="3.36"/><rect class="cls-1" y="33.8" width="49.38" height="6.73" rx="3.36"/><rect class="cls-1" x="44.84" y="24.96" width="6.73" height="6.73" rx="3.36"/><rect class="cls-1" x="6.26" y="24.83" width="36" height="6.73" rx="3.36"/><circle class="cls-2" cx="7.98" cy="12.27" r="1.38"/><circle class="cls-2" cx="47.93" cy="34.52" r="1.38"/><line class="cls-2" x1="3.82" y1="30.6" x2="5.69" y2="32.46"/><line class="cls-2" x1="5.69" y1="30.6" x2="3.82" y2="32.46"/><line class="cls-2" x1="42.99" y1="13.19" x2="44.85" y2="15.05"/><line class="cls-2" x1="44.85" y1="13.19" x2="42.99" y2="15.05"/><polygon class="cls-3" points="13.75 16.89 26.5 21.7 39.66 17.21 26.5 12.34 13.75 16.89"/><rect class="cls-4" x="25.08" y="12.52" width="3.26" height="14.44"/><polyline class="cls-5" points="13.58 17.05 26.68 12.43 39.79 17.05"/><polygon class="cls-3" points="13.55 17.18 13.68 33.86 26.67 38.41 39.59 33.99 39.53 17.25 26.87 21.93 13.55 17.18"/><path class="cls-5" d="M49.31,25V41.33a1,1,0,0,1-.67.94L36.78,46.45a1.77,1.77,0,0,1-1.16,0L23.76,42.27a1,1,0,0,1-.66-.94V25" transform="translate(-9.52 -7.98)"/><line class="cls-6" x1="26.69" y1="21.66" x2="26.7" y2="38.28"/><path class="cls-6" d="M51.21,31.36,40,35.31a1,1,0,0,1-1.22-.5L36.2,29.64,49.31,25l2.46,5A1,1,0,0,1,51.21,31.36Z" transform="translate(-9.52 -7.98)"/><path class="cls-6" d="M21.2,31.36l11.2,4a1,1,0,0,0,1.23-.5l2.57-5.17L23.1,25l-2.46,5A1,1,0,0,0,21.2,31.36Z" transform="translate(-9.52 -7.98)"/><circle class="cls-7" cx="26.71" cy="9.4" r="8.9"/><rect class="cls-4" x="35.24" y="12.56" width="1.98" height="9.11" rx="0.99" transform="translate(-11.01 22.65) rotate(-45)"/><rect class="cls-4" x="35.24" y="12.56" width="1.98" height="9.11" rx="0.99" transform="translate(13.2 -28.58) rotate(45)"/></svg>