<svg id="Layer_1" data-name="Layer 1" xmlns="http://www.w3.org/2000/svg" viewBox="0 0 53.54 37.5"><defs><style>.cls-1{fill:#ffe9e9;}.cls-2,.cls-3{fill:#fff;}.cls-3,.cls-5,.cls-6{stroke:#ff524b;stroke-linecap:round;stroke-linejoin:round;}.cls-4{fill:#ff524b;}.cls-5,.cls-6{fill:none;}.cls-6{stroke-width:0.7px;}</style></defs><rect class="cls-1" y="30.78" width="49.38" height="6.73" rx="3.36"/><rect class="cls-1" x="44.84" y="21.94" width="6.73" height="6.73" rx="3.36"/><rect class="cls-1" x="2.51" y="13.37" width="13.58" height="6.73" rx="3.36"/><rect class="cls-1" x="6.26" y="21.81" width="36" height="6.73" rx="3.36"/><rect class="cls-1" x="18.2" y="12.84" width="35.34" height="6.73" rx="3.36"/><rect class="cls-1" x="6.53" y="3.88" width="35.93" height="6.73" rx="3.36"/><polygon class="cls-2" points="13.55 14.16 13.68 30.84 26.67 35.39 39.59 30.98 39.53 14.23 26.87 18.91 13.55 14.16"/><rect class="cls-3" x="30.23" y="13.86" width="11.75" height="17.74" rx="0.65" transform="translate(49.42 -22.91) rotate(90)"/><rect class="cls-4" x="17.65" y="10.09" width="18.02" height="2.2"/><circle class="cls-1" cx="29.51" cy="15.25" r="1.71"/><circle class="cls-4" cx="31.67" cy="15.25" r="1.71"/><path class="cls-5" d="M49.21,23.57V39.88a1,1,0,0,1-.66.94L36.68,45a1.63,1.63,0,0,1-1.15,0L23.66,40.82a1,1,0,0,1-.66-.94V23.57" transform="translate(-9.42 -9.54)"/><line class="cls-3" x1="26.69" y1="18.65" x2="26.7" y2="35.26"/><path class="cls-3" d="M51.11,29.91l-11.2,3.95a1,1,0,0,1-1.23-.5L36.1,28.18l13.11-4.61,2.46,4.95A1,1,0,0,1,51.11,29.91Z" transform="translate(-9.42 -9.54)"/><path class="cls-3" d="M21.1,29.91l11.2,3.95a1,1,0,0,0,1.23-.5l2.57-5.18L23,23.57l-2.46,4.95A1,1,0,0,0,21.1,29.91Z" transform="translate(-9.42 -9.54)"/><line class="cls-6" x1="26.77" y1="3.45" x2="26.77" y2="0.35"/><line class="cls-6" x1="32.28" y1="4.89" x2="33.83" y2="2.21"/><line class="cls-6" x1="20.86" y1="4.89" x2="19.31" y2="2.21"/><circle class="cls-6" cx="7.98" cy="9.25" r="1.38"/><circle class="cls-6" cx="47.93" cy="31.5" r="1.38"/><line class="cls-6" x1="3.82" y1="27.58" x2="5.69" y2="29.44"/><line class="cls-6" x1="5.69" y1="27.58" x2="3.82" y2="29.44"/><line class="cls-6" x1="42.99" y1="10.17" x2="44.85" y2="12.04"/><line class="cls-6" x1="44.85" y1="10.17" x2="42.99" y2="12.04"/></svg>