<svg width="70" height="40" viewBox="0 0 70 40" fill="none" xmlns="http://www.w3.org/2000/svg">
<path d="M41 4.3501H8C6.34315 4.3501 5 5.69324 5 7.3501C5 9.00695 6.34315 10.3501 8 10.3501H41C42.6569 10.3501 44 9.00695 44 7.3501C44 5.69324 42.6569 4.3501 41 4.3501Z" fill="#DDEDFF"/>
<path d="M62 28.3501H19C17.3431 28.3501 16 29.6932 16 31.3501C16 33.007 17.3431 34.3501 19 34.3501H62C63.6569 34.3501 65 33.007 65 31.3501C65 29.6932 63.6569 28.3501 62 28.3501Z" fill="#DDEDFF"/>
<path d="M65 20.3501H61C59.3431 20.3501 58 21.6932 58 23.3501C58 25.007 59.3431 26.3501 61 26.3501H65C66.6569 26.3501 68 25.007 68 23.3501C68 21.6932 66.6569 20.3501 65 20.3501Z" fill="#DDEDFF"/>
<path d="M53 4.3501H49C47.3431 4.3501 46 5.69324 46 7.3501C46 9.00695 47.3431 10.3501 49 10.3501H53C54.6569 10.3501 56 9.00695 56 7.3501C56 5.69324 54.6569 4.3501 53 4.3501Z" fill="#DDEDFF"/>
<path d="M10 12.3501H6C4.34315 12.3501 3 13.6932 3 15.3501C3 17.007 4.34315 18.3501 6 18.3501H10C11.6569 18.3501 13 17.007 13 15.3501C13 13.6932 11.6569 12.3501 10 12.3501Z" fill="#DDEDFF"/>
<path d="M12 28.3501H4C2.34315 28.3501 1 29.6932 1 31.3501C1 33.007 2.34315 34.3501 4 34.3501H12C13.6569 34.3501 15 33.007 15 31.3501C15 29.6932 13.6569 28.3501 12 28.3501Z" fill="#DDEDFF"/>
<path d="M57 12.3501H18C16.3431 12.3501 15 13.6932 15 15.3501C15 17.007 16.3431 18.3501 18 18.3501H57C58.6569 18.3501 60 17.007 60 15.3501C60 13.6932 58.6569 12.3501 57 12.3501Z" fill="#DDEDFF"/>
<path d="M53 20.3501H15C13.3431 20.3501 12 21.6932 12 23.3501C12 25.007 13.3431 26.3501 15 26.3501H53C54.6569 26.3501 56 25.007 56 23.3501C56 21.6932 54.6569 20.3501 53 20.3501Z" fill="#DDEDFF"/>
<path d="M51.5 10H21.5C20.6716 10 20 10.6716 20 11.5V28.5C20 29.3284 20.6716 30 21.5 30H51.5C52.3284 30 53 29.3284 53 28.5V11.5C53 10.6716 52.3284 10 51.5 10Z" fill="white" stroke="#007AFF" stroke-width="0.9"/>
<path d="M53 13H20V16H53V13Z" fill="#007AFF"/>
<path d="M36.46 4.1V1" stroke="#007AFF" stroke-width="0.9" stroke-linecap="round" stroke-linejoin="round"/>
<path d="M41.9795 5.53986L43.5295 2.85986" stroke="#007AFF" stroke-width="0.9" stroke-linecap="round" stroke-linejoin="round"/>
<path d="M30.55 5.53986L29 2.85986" stroke="#007AFF" stroke-width="0.9" stroke-linecap="round" stroke-linejoin="round"/>
<path d="M63 29C63.5523 29 64 28.5523 64 28C64 27.4477 63.5523 27 63 27C62.4477 27 62 27.4477 62 28C62 28.5523 62.4477 29 63 29Z" stroke="#007AFF" stroke-width="0.9"/>
<path d="M15 9C15.5523 9 16 8.55228 16 8C16 7.44771 15.5523 7 15 7C14.4477 7 14 7.44771 14 8C14 8.55228 14.4477 9 15 9Z" stroke="#007AFF" stroke-width="0.9"/>
<path d="M17 35C17.5523 35 18 34.5523 18 34C18 33.4477 17.5523 33 17 33C16.4477 33 16 33.4477 16 34C16 34.5523 16.4477 35 17 35Z" stroke="#007AFF" stroke-width="0.9"/>
<path d="M47 26.3501C48.6569 26.3501 50 25.007 50 23.3501C50 21.6932 48.6569 20.3501 47 20.3501C45.3431 20.3501 44 21.6932 44 23.3501C44 25.007 45.3431 26.3501 47 26.3501Z" fill="#DDEDFF"/>
<path d="M26 26.3501C27.6569 26.3501 29 25.007 29 23.3501C29 21.6932 27.6569 20.3501 26 20.3501C24.3431 20.3501 23 21.6932 23 23.3501C23 25.007 24.3431 26.3501 26 26.3501Z" fill="#DDEDFF"/>
<path d="M38 24H35C34.4477 24 34 24.4477 34 25C34 25.5523 34.4477 26 35 26H38C38.5523 26 39 25.5523 39 25C39 24.4477 38.5523 24 38 24Z" fill="#007AFF"/>
<path d="M30.998 20L33.4434 22.4046" stroke="#007AFF" stroke-width="0.9"/>
<path d="M33.4434 20L30.998 22.4046" stroke="#007AFF" stroke-width="0.9"/>
<path d="M39.3994 20L41.8448 22.4046" stroke="#007AFF" stroke-width="0.9"/>
<path d="M41.8448 20L39.3994 22.4046" stroke="#007AFF" stroke-width="0.9"/>
<path d="M53.2146 32.1863L52.8775 32.4844L53.1756 32.8215L57.8819 38.1448C58.4178 38.751 59.3437 38.8079 59.9499 38.272C60.5561 37.7361 60.613 36.8102 60.0771 36.204L55.3708 30.8807L55.0727 30.5436L54.7356 30.8416L53.2146 32.1863Z" fill="#DDEDFF" stroke="#007AFF" stroke-width="0.9"/>
<rect x="51.982" y="31.4707" width="2.93012" height="2.25341" transform="rotate(-41.4798 51.982 31.4707)" fill="#007AFF" stroke="#007AFF" stroke-width="0.9"/>
<rect x="51.0855" y="30.457" width="2.93012" height="2.25341" transform="rotate(-41.4798 51.0855 30.457)" fill="#DDEDFF" stroke="#007AFF" stroke-width="0.9"/>
<circle cx="49.1483" cy="25.5436" r="4.73694" transform="rotate(-41.4798 49.1483 25.5436)" fill="white"/>
<mask id="path-28-outside-1_286_149" maskUnits="userSpaceOnUse" x="39.5885" y="16.1617" width="19.7616" height="19.7616" fill="black">
<rect fill="white" x="39.5885" y="16.1617" width="19.7616" height="19.7616"/>
<path fill-rule="evenodd" clip-rule="evenodd" d="M52.7751 30.2682C55.1244 28.1912 55.3451 24.6031 53.2681 22.2538C51.1912 19.9045 47.603 19.6838 45.2537 21.7608C42.9045 23.8378 42.6837 27.4259 44.7607 29.7752C46.8377 32.1245 50.4259 32.3452 52.7751 30.2682ZM51.8785 29.2543C53.6679 27.6724 53.836 24.9394 52.254 23.1501C50.6721 21.3607 47.9391 21.1926 46.1498 22.7745C44.3604 24.3565 44.1923 27.0895 45.7743 28.8788C47.3562 30.6681 50.0892 30.8363 51.8785 29.2543Z"/>
</mask>
<path fill-rule="evenodd" clip-rule="evenodd" d="M52.7751 30.2682C55.1244 28.1912 55.3451 24.6031 53.2681 22.2538C51.1912 19.9045 47.603 19.6838 45.2537 21.7608C42.9045 23.8378 42.6837 27.4259 44.7607 29.7752C46.8377 32.1245 50.4259 32.3452 52.7751 30.2682ZM51.8785 29.2543C53.6679 27.6724 53.836 24.9394 52.254 23.1501C50.6721 21.3607 47.9391 21.1926 46.1498 22.7745C44.3604 24.3565 44.1923 27.0895 45.7743 28.8788C47.3562 30.6681 50.0892 30.8363 51.8785 29.2543Z" fill="#DDEDFF"/>
<path d="M52.5939 22.8499C54.3416 24.8268 54.1559 27.8462 52.179 29.594L53.3713 30.9425C56.0929 28.5363 56.3486 24.3793 53.9424 21.6577L52.5939 22.8499ZM45.8498 22.435C47.8267 20.6873 50.8461 20.873 52.5939 22.8499L53.9424 21.6577C51.5362 18.936 47.3793 18.6803 44.6576 21.0865L45.8498 22.435ZM45.435 29.1791C43.6872 27.2022 43.873 24.1828 45.8498 22.435L44.6576 21.0865C41.9359 23.4927 41.6802 27.6497 44.0864 30.3713L45.435 29.1791ZM52.179 29.594C50.2021 31.3417 47.1827 31.156 45.435 29.1791L44.0864 30.3713C46.4926 33.093 50.6496 33.3487 53.3713 30.9425L52.179 29.594ZM51.5798 23.7462C52.8325 25.1631 52.6994 27.3273 51.2824 28.58L52.4746 29.9286C54.6364 28.0174 54.8395 24.7157 52.9283 22.5539L51.5798 23.7462ZM46.7459 23.4488C48.1629 22.1961 50.327 22.3292 51.5798 23.7462L52.9283 22.5539C51.0171 20.3922 47.7154 20.1891 45.5537 22.1003L46.7459 23.4488ZM46.4485 28.2827C45.1958 26.8657 45.329 24.7015 46.7459 23.4488L45.5537 22.1003C43.3919 24.0114 43.1888 27.3132 45.1 29.4749L46.4485 28.2827ZM51.2824 28.58C49.8655 29.8328 47.7013 29.6996 46.4485 28.2827L45.1 29.4749C47.0112 31.6366 50.3129 31.8398 52.4746 29.9286L51.2824 28.58Z" fill="#007AFF" mask="url(#path-28-outside-1_286_149)"/>
<path d="M61.5202 11.8184L61.489 11.7983L61.117 11.5231L60.9964 11.4338L60.9072 11.5544L59.5041 13.4504L59.4149 13.5709L59.5354 13.6602L59.9454 13.9635L60.0659 14.0528L60.1552 13.9322L61.1362 12.6065C61.8633 13.0135 62.7967 12.8262 63.3054 12.1388C63.8574 11.393 63.7002 10.341 62.9544 9.78905C62.2271 9.25083 61.2088 9.38689 60.6467 10.0856L60.5488 10.2073L60.6744 10.3002L61.1361 10.6419L61.2492 10.7256L61.3399 10.6182C61.6119 10.2964 62.0911 10.2371 62.4346 10.4914C62.7926 10.7563 62.868 11.2611 62.6031 11.619C62.3491 11.9623 61.8742 12.0457 61.5202 11.8184ZM58.5761 15.335C58.8424 15.5321 59.2203 15.486 59.418 15.2188C59.6157 14.9517 59.5494 14.5768 59.283 14.3797C59.0167 14.1826 58.6388 14.2287 58.4411 14.4959C58.2434 14.763 58.3097 15.1379 58.5761 15.335Z" fill="#007AFF" stroke="#007AFF" stroke-width="0.3"/>
<path d="M12.0671 21.5689L12.0382 21.5921L11.6583 21.8563L11.5352 21.942L11.6208 22.0651L12.9678 24.0014L13.0534 24.1245L13.1766 24.0389L13.5952 23.7476L13.7184 23.662L13.6327 23.5389L12.6909 22.185C13.3092 21.6265 13.4306 20.6822 12.9423 19.9802C12.4124 19.2186 11.3655 19.0307 10.6038 19.5605C9.8611 20.0772 9.66396 21.0855 10.1459 21.8417L10.2299 21.9734L10.3581 21.8842L10.8297 21.5561L10.9451 21.4758L10.8724 21.3554C10.6547 20.9947 10.7519 20.5218 11.1028 20.2778C11.4683 20.0235 11.9708 20.1137 12.225 20.4792C12.4689 20.8297 12.3959 21.3063 12.0671 21.5689ZM14.4561 25.4839C14.7281 25.2947 14.8054 24.922 14.6156 24.6491C14.4258 24.3763 14.0495 24.3191 13.7774 24.5083C13.5054 24.6976 13.4281 25.0703 13.6179 25.3432C13.8077 25.616 14.1841 25.6732 14.4561 25.4839Z" fill="#007AFF" stroke="#007AFF" stroke-width="0.3"/>
</svg>
